<svg width="313" height="185" viewBox="0 0 313 185" fill="none" xmlns="http://www.w3.org/2000/svg">
<path d="M0 80H312" stroke="#E2E7E7" stroke-dasharray="3 6"/>
<path d="M0 40H312" stroke="#E2E7E7" stroke-dasharray="3 6"/>
<path d="M0 120H312" stroke="#E2E7E7" stroke-dasharray="3 6"/>
<path d="M0 160H312" stroke="#E2E7E7"/>
<path opacity="0.5" d="M14.7167 174.941C14.7167 173.68 14.922 172.697 15.3327 171.993C15.7433 171.282 16.462 170.926 17.4887 170.926C18.508 170.926 19.223 171.282 19.6337 171.993C20.0443 172.697 20.2497 173.68 20.2497 174.941C20.2497 176.224 20.0443 177.222 19.6337 177.933C19.223 178.644 18.508 179 17.4887 179C16.462 179 15.7433 178.644 15.3327 177.933C14.922 177.222 14.7167 176.224 14.7167 174.941ZM19.2597 174.941C19.2597 174.303 19.2157 173.764 19.1277 173.324C19.047 172.877 18.8747 172.517 18.6107 172.246C18.354 171.975 17.98 171.839 17.4887 171.839C16.99 171.839 16.6087 171.975 16.3447 172.246C16.088 172.517 15.9157 172.877 15.8277 173.324C15.747 173.764 15.7067 174.303 15.7067 174.941C15.7067 175.601 15.747 176.155 15.8277 176.602C15.9157 177.049 16.088 177.409 16.3447 177.68C16.6087 177.951 16.99 178.087 17.4887 178.087C17.98 178.087 18.354 177.951 18.6107 177.68C18.8747 177.409 19.047 177.049 19.1277 176.602C19.2157 176.155 19.2597 175.601 19.2597 174.941ZM21.8599 171.96V171.047H23.9279V179H22.9159V171.96H21.8599Z" fill="#737B8B"/>
<path opacity="0.5" d="M67.8148 174.941C67.8148 173.68 68.0201 172.697 68.4308 171.993C68.8415 171.282 69.5601 170.926 70.5868 170.926C71.6061 170.926 72.3211 171.282 72.7318 171.993C73.1425 172.697 73.3478 173.68 73.3478 174.941C73.3478 176.224 73.1425 177.222 72.7318 177.933C72.3211 178.644 71.6061 179 70.5868 179C69.5601 179 68.8415 178.644 68.4308 177.933C68.0201 177.222 67.8148 176.224 67.8148 174.941ZM72.3578 174.941C72.3578 174.303 72.3138 173.764 72.2258 173.324C72.1451 172.877 71.9728 172.517 71.7088 172.246C71.4521 171.975 71.0781 171.839 70.5868 171.839C70.0881 171.839 69.7068 171.975 69.4428 172.246C69.1861 172.517 69.0138 172.877 68.9258 173.324C68.8451 173.764 68.8048 174.303 68.8048 174.941C68.8048 175.601 68.8451 176.155 68.9258 176.602C69.0138 177.049 69.1861 177.409 69.4428 177.68C69.7068 177.951 70.0881 178.087 70.5868 178.087C71.0781 178.087 71.4521 177.951 71.7088 177.68C71.9728 177.409 72.1451 177.049 72.2258 176.602C72.3138 176.155 72.3578 175.601 72.3578 174.941ZM75.101 178.197C76.0324 177.449 76.762 176.837 77.29 176.36C77.818 175.876 78.2617 175.374 78.621 174.853C78.9877 174.325 79.171 173.808 79.171 173.302C79.171 172.825 79.0537 172.451 78.819 172.18C78.5917 171.901 78.2214 171.762 77.708 171.762C77.2094 171.762 76.8207 171.92 76.542 172.235C76.2707 172.543 76.124 172.957 76.102 173.478H75.134C75.1634 172.657 75.4127 172.022 75.882 171.575C76.3514 171.128 76.9564 170.904 77.697 170.904C78.4524 170.904 79.05 171.113 79.49 171.531C79.9374 171.949 80.161 172.525 80.161 173.258C80.161 173.867 79.9777 174.461 79.611 175.04C79.2517 175.612 78.841 176.118 78.379 176.558C77.917 176.991 77.3267 177.497 76.608 178.076H80.392V178.912H75.101V178.197Z" fill="#737B8B"/>
<path opacity="0.5" d="M122.74 174.941C122.74 173.68 122.945 172.697 123.356 171.993C123.766 171.282 124.485 170.926 125.512 170.926C126.531 170.926 127.246 171.282 127.657 171.993C128.067 172.697 128.273 173.68 128.273 174.941C128.273 176.224 128.067 177.222 127.657 177.933C127.246 178.644 126.531 179 125.512 179C124.485 179 123.766 178.644 123.356 177.933C122.945 177.222 122.74 176.224 122.74 174.941ZM127.283 174.941C127.283 174.303 127.239 173.764 127.151 173.324C127.07 172.877 126.898 172.517 126.634 172.246C126.377 171.975 126.003 171.839 125.512 171.839C125.013 171.839 124.632 171.975 124.368 172.246C124.111 172.517 123.939 172.877 123.851 173.324C123.77 173.764 123.73 174.303 123.73 174.941C123.73 175.601 123.77 176.155 123.851 176.602C123.939 177.049 124.111 177.409 124.368 177.68C124.632 177.951 125.013 178.087 125.512 178.087C126.003 178.087 126.377 177.951 126.634 177.68C126.898 177.409 127.07 177.049 127.151 176.602C127.239 176.155 127.283 175.601 127.283 174.941ZM130.125 173.049C130.176 172.374 130.437 171.846 130.906 171.465C131.375 171.084 131.984 170.893 132.732 170.893C133.231 170.893 133.66 170.985 134.019 171.168C134.386 171.344 134.661 171.586 134.844 171.894C135.035 172.202 135.13 172.55 135.13 172.939C135.13 173.394 134.998 173.786 134.734 174.116C134.477 174.446 134.14 174.659 133.722 174.754V174.809C134.199 174.926 134.576 175.157 134.855 175.502C135.134 175.847 135.273 176.298 135.273 176.855C135.273 177.273 135.178 177.651 134.987 177.988C134.796 178.318 134.51 178.578 134.129 178.769C133.748 178.96 133.289 179.055 132.754 179.055C131.977 179.055 131.339 178.853 130.84 178.45C130.341 178.039 130.063 177.46 130.004 176.712H130.972C131.023 177.152 131.203 177.511 131.511 177.79C131.819 178.069 132.23 178.208 132.743 178.208C133.256 178.208 133.645 178.076 133.909 177.812C134.18 177.541 134.316 177.192 134.316 176.767C134.316 176.217 134.133 175.821 133.766 175.579C133.399 175.337 132.846 175.216 132.105 175.216H131.852V174.38H132.116C132.791 174.373 133.3 174.263 133.645 174.05C133.99 173.83 134.162 173.493 134.162 173.038C134.162 172.649 134.034 172.338 133.777 172.103C133.528 171.868 133.168 171.751 132.699 171.751C132.244 171.751 131.878 171.868 131.599 172.103C131.32 172.338 131.155 172.653 131.104 173.049H130.125Z" fill="#737B8B"/>
<path opacity="0.5" d="M178.019 174.941C178.019 173.68 178.225 172.697 178.635 171.993C179.046 171.282 179.765 170.926 180.791 170.926C181.811 170.926 182.526 171.282 182.936 171.993C183.347 172.697 183.552 173.68 183.552 174.941C183.552 176.224 183.347 177.222 182.936 177.933C182.526 178.644 181.811 179 180.791 179C179.765 179 179.046 178.644 178.635 177.933C178.225 177.222 178.019 176.224 178.019 174.941ZM182.562 174.941C182.562 174.303 182.518 173.764 182.43 173.324C182.35 172.877 182.177 172.517 181.913 172.246C181.657 171.975 181.283 171.839 180.791 171.839C180.293 171.839 179.911 171.975 179.647 172.246C179.391 172.517 179.218 172.877 179.13 173.324C179.05 173.764 179.009 174.303 179.009 174.941C179.009 175.601 179.05 176.155 179.13 176.602C179.218 177.049 179.391 177.409 179.647 177.68C179.911 177.951 180.293 178.087 180.791 178.087C181.283 178.087 181.657 177.951 181.913 177.68C182.177 177.409 182.35 177.049 182.43 176.602C182.518 176.155 182.562 175.601 182.562 174.941ZM185.185 177.229V176.47L189.046 171.124H190.245V176.36H191.345V177.229H190.245V179H189.255V177.229H185.185ZM189.299 172.169L186.34 176.36H189.299V172.169Z" fill="#737B8B"/>
<path opacity="0.5" d="M233.025 174.941C233.025 173.68 233.23 172.697 233.641 171.993C234.051 171.282 234.77 170.926 235.797 170.926C236.816 170.926 237.531 171.282 237.942 171.993C238.352 172.697 238.558 173.68 238.558 174.941C238.558 176.224 238.352 177.222 237.942 177.933C237.531 178.644 236.816 179 235.797 179C234.77 179 234.051 178.644 233.641 177.933C233.23 177.222 233.025 176.224 233.025 174.941ZM237.568 174.941C237.568 174.303 237.524 173.764 237.436 173.324C237.355 172.877 237.183 172.517 236.919 172.246C236.662 171.975 236.288 171.839 235.797 171.839C235.298 171.839 234.917 171.975 234.653 172.246C234.396 172.517 234.224 172.877 234.136 173.324C234.055 173.764 234.015 174.303 234.015 174.941C234.015 175.601 234.055 176.155 234.136 176.602C234.224 177.049 234.396 177.409 234.653 177.68C234.917 177.951 235.298 178.087 235.797 178.087C236.288 178.087 236.662 177.951 236.919 177.68C237.183 177.409 237.355 177.049 237.436 176.602C237.524 176.155 237.568 175.601 237.568 174.941ZM245.503 171.916H241.642V174.424C241.811 174.189 242.06 173.999 242.39 173.852C242.72 173.698 243.076 173.621 243.457 173.621C244.066 173.621 244.561 173.749 244.942 174.006C245.323 174.255 245.595 174.582 245.756 174.985C245.925 175.381 246.009 175.803 246.009 176.25C246.009 176.778 245.91 177.251 245.712 177.669C245.514 178.087 245.21 178.417 244.799 178.659C244.396 178.901 243.893 179.022 243.292 179.022C242.522 179.022 241.899 178.824 241.422 178.428C240.945 178.032 240.656 177.504 240.553 176.844H241.532C241.627 177.262 241.829 177.588 242.137 177.823C242.445 178.058 242.834 178.175 243.303 178.175C243.882 178.175 244.319 178.003 244.612 177.658C244.905 177.306 245.052 176.844 245.052 176.272C245.052 175.7 244.905 175.26 244.612 174.952C244.319 174.637 243.886 174.479 243.314 174.479C242.925 174.479 242.584 174.574 242.291 174.765C242.005 174.948 241.796 175.201 241.664 175.524H240.718V171.036H245.503V171.916Z" fill="#737B8B"/>
<path opacity="0.5" d="M287.987 174.941C287.987 173.68 288.193 172.697 288.603 171.993C289.014 171.282 289.733 170.926 290.759 170.926C291.779 170.926 292.494 171.282 292.904 171.993C293.315 172.697 293.52 173.68 293.52 174.941C293.52 176.224 293.315 177.222 292.904 177.933C292.494 178.644 291.779 179 290.759 179C289.733 179 289.014 178.644 288.603 177.933C288.193 177.222 287.987 176.224 287.987 174.941ZM292.53 174.941C292.53 174.303 292.486 173.764 292.398 173.324C292.318 172.877 292.145 172.517 291.881 172.246C291.625 171.975 291.251 171.839 290.759 171.839C290.261 171.839 289.879 171.975 289.615 172.246C289.359 172.517 289.186 172.877 289.098 173.324C289.018 173.764 288.977 174.303 288.977 174.941C288.977 175.601 289.018 176.155 289.098 176.602C289.186 177.049 289.359 177.409 289.615 177.68C289.879 177.951 290.261 178.087 290.759 178.087C291.251 178.087 291.625 177.951 291.881 177.68C292.145 177.409 292.318 177.049 292.398 176.602C292.486 176.155 292.53 175.601 292.53 174.941ZM299.827 172.939C299.666 172.125 299.164 171.718 298.32 171.718C297.668 171.718 297.18 171.971 296.857 172.477C296.535 172.976 296.377 173.801 296.384 174.952C296.553 174.571 296.832 174.274 297.22 174.061C297.616 173.841 298.056 173.731 298.54 173.731C299.296 173.731 299.897 173.966 300.344 174.435C300.799 174.904 301.026 175.553 301.026 176.382C301.026 176.881 300.927 177.328 300.729 177.724C300.539 178.12 300.245 178.435 299.849 178.67C299.461 178.905 298.988 179.022 298.43 179.022C297.675 179.022 297.085 178.853 296.659 178.516C296.234 178.179 295.937 177.713 295.768 177.119C295.6 176.525 295.515 175.792 295.515 174.919C295.515 172.228 296.454 170.882 298.331 170.882C299.05 170.882 299.615 171.076 300.025 171.465C300.436 171.854 300.678 172.345 300.751 172.939H299.827ZM298.331 174.578C298.016 174.578 297.719 174.644 297.44 174.776C297.162 174.901 296.934 175.095 296.758 175.359C296.59 175.616 296.505 175.931 296.505 176.305C296.505 176.862 296.667 177.317 296.989 177.669C297.312 178.014 297.774 178.186 298.375 178.186C298.889 178.186 299.296 178.028 299.596 177.713C299.904 177.39 300.058 176.958 300.058 176.415C300.058 175.843 299.912 175.396 299.618 175.073C299.325 174.743 298.896 174.578 298.331 174.578Z" fill="#737B8B"/>
<path d="M19.8568 92.794L77.9994 57.9478L128.999 122.925L183.999 60.8815L238.999 86.8378L293.999 72.794" stroke="#E6E8EC" stroke-width="3" stroke-linecap="round" stroke-linejoin="round"/>
<path d="M19.8583 120.794L78.0009 134.948L129.001 80.9254L184.001 88.8816L239.001 124.838L294.001 40.794" stroke="#5A6ACF" stroke-width="3" stroke-linecap="round" stroke-linejoin="round"/>
</svg>
